<svg width="90" height="90" viewBox="0 0 90 90" fill="none" xmlns="http://www.w3.org/2000/svg">
<path d="M0 0V90H90V0H0ZM48.9777 70.192C48.9777 78.9509 43.8348 82.9487 36.3415 82.9487C29.5714 82.9487 25.654 79.4531 23.6451 75.2143L30.5357 71.0558C31.8616 73.4062 33.067 75.3951 35.9799 75.3951C38.7522 75.3951 40.5201 74.3103 40.5201 70.0714V41.3237H48.9777V70.192ZM68.9866 82.9487C61.1317 82.9487 56.0491 79.212 53.5781 74.3103L60.4687 70.3326C62.2768 73.2857 64.6473 75.4754 68.8058 75.4754C72.3013 75.4754 74.5513 73.7277 74.5513 71.2969C74.5513 68.404 72.2612 67.3795 68.3839 65.6719L66.2746 64.7679C60.1674 62.1763 56.1295 58.9018 56.1295 52.0112C56.1295 45.6629 60.971 40.8415 68.5045 40.8415C73.8884 40.8415 77.7455 42.7098 80.5179 47.6116L73.9286 51.8304C72.4821 49.2388 70.9152 48.2143 68.4844 48.2143C66.0134 48.2143 64.4464 49.7812 64.4464 51.8304C64.4464 54.3616 66.0134 55.3862 69.6496 56.9732L71.7589 57.8772C78.9509 60.9509 82.9888 64.1049 82.9888 71.1763C82.9888 78.7701 77.0022 82.9487 68.9866 82.9487Z" fill="#F7DF1E"/>
</svg>
