<svg width="103" height="90" viewBox="0 0 103 90" fill="none" xmlns="http://www.w3.org/2000/svg">
<path d="M84.1301 29.1656C83.0438 28.804 81.9574 28.4625 80.8711 28.1411C81.0521 27.3978 81.2131 26.6545 81.374 25.9113C83.8484 13.9387 82.2189 4.31645 76.727 1.14252C71.4361 -1.8908 62.8059 1.26305 54.075 8.85639C53.21 9.59965 52.365 10.3831 51.5603 11.1665C51.0172 10.6442 50.4539 10.1219 49.8906 9.61974C40.7373 1.5041 31.5639 -1.91089 26.0719 1.28313C20.8012 4.33654 19.232 13.3963 21.4449 24.7261C21.6662 25.851 21.9076 26.9559 22.1893 28.0808C20.9018 28.4424 19.6344 28.8442 18.4475 29.266C7.70488 32.9823 0 38.8481 0 44.9147C0 51.1823 8.20781 57.4699 19.3729 61.2866C20.2781 61.5879 21.1834 61.8893 22.1088 62.1504C21.807 63.3557 21.5455 64.5409 21.3041 65.7663C19.1918 76.9152 20.8414 85.7541 26.1121 88.7874C31.5438 91.9211 40.677 88.707 49.5687 80.9329C50.2729 80.3102 50.977 79.6673 51.6811 78.9843C52.5662 79.8481 53.4916 80.6717 54.417 81.4753C63.0271 88.8677 71.5367 91.8609 76.7873 88.8276C82.2189 85.6938 83.9893 76.1921 81.6959 64.6213C81.5148 63.7374 81.3137 62.8334 81.0924 61.9094C81.7361 61.7286 82.3598 61.5277 82.9834 61.3268C94.591 57.4899 103 51.2827 103 44.9147C103 38.828 95.0738 32.9221 84.1301 29.1656ZM56.9115 12.1107C64.3951 5.6021 71.3758 3.0509 74.5543 4.87892C77.9541 6.82748 79.2617 14.7021 77.1293 25.0475C76.9885 25.7305 76.8477 26.3934 76.6666 27.0563C72.2006 26.0519 67.6742 25.3287 63.1277 24.927C60.5125 21.1906 57.6559 17.6149 54.5578 14.2601C55.3424 13.5169 56.1068 12.8138 56.9115 12.1107ZM33.6359 55.3405C34.6619 57.0882 35.708 58.8359 36.8145 60.5434C33.6762 60.2019 30.558 59.6997 27.4801 59.0367C28.3652 56.144 29.4717 53.1509 30.7592 50.0975C31.6846 51.8652 32.6301 53.6129 33.6359 55.3405ZM27.5404 31.1744C30.4373 30.5316 33.5152 30.0093 36.7139 29.6075C35.6477 31.2748 34.6016 32.9823 33.6158 34.7099C32.6301 36.4174 31.6645 38.1651 30.7592 39.9329C29.4918 36.9397 28.4256 34.0068 27.5404 31.1744ZM33.0525 45.0152C34.3803 42.243 35.8287 39.5311 37.3576 36.8594C38.8865 34.1876 40.5361 31.5962 42.2662 29.045C45.2838 28.8241 48.3617 28.7035 51.5 28.7035C54.6383 28.7035 57.7363 28.8241 60.7338 29.045C62.4437 31.5762 64.0732 34.1675 65.6223 36.8192C67.1713 39.4708 68.6197 42.1827 69.9877 44.9348C68.6398 47.707 67.1914 50.439 65.6424 53.1308C64.1135 55.8025 62.484 58.3939 60.774 60.9652C57.7766 61.1862 54.6584 61.2866 51.5 61.2866C48.3416 61.2866 45.2838 61.1862 42.3266 61.0054C40.5764 58.4542 38.9268 55.8427 37.3777 53.171C35.8287 50.4993 34.4004 47.7873 33.0525 45.0152ZM69.3842 55.3003C70.4102 53.5326 71.3758 51.7447 72.3213 49.9368C73.6088 52.8496 74.7354 55.8025 75.7211 58.8359C72.6029 59.5389 69.4445 60.0813 66.266 60.4429C67.3523 58.7555 68.3783 57.0279 69.3842 55.3003ZM72.2811 39.9329C71.3355 38.1651 70.3699 36.3973 69.3641 34.6697C68.3783 32.9622 67.3523 31.2748 66.2861 29.6075C69.525 30.0093 72.623 30.5517 75.5199 31.2146C74.5945 34.1876 73.5082 37.0803 72.2811 39.9329ZM51.5402 17.3336C53.6525 19.6237 55.6441 22.0343 57.4949 24.5252C53.5117 24.3444 49.5084 24.3444 45.5252 24.5252C47.4967 21.9338 49.5285 19.5232 51.5402 17.3336ZM28.2043 5.01954C31.584 3.0509 39.0877 5.86325 46.9938 12.8539C47.4967 13.2959 47.9996 13.778 48.5227 14.2601C45.4045 17.6149 42.5277 21.1906 39.8924 24.927C35.3459 25.3287 30.8396 26.0318 26.3736 27.0161C26.1121 25.9916 25.8908 24.947 25.6695 23.9025C23.7785 14.1798 25.0258 6.84757 28.2043 5.01954ZM23.2756 57.9721C22.4307 57.731 21.6059 57.4699 20.7811 57.1886C16.4961 55.8427 11.6277 53.7134 8.10723 50.9211C6.07539 49.5149 4.70742 47.3454 4.3252 44.9147C4.3252 41.2386 10.6822 36.5379 19.8557 33.3439C21.0023 32.9422 22.1691 32.5806 23.3359 32.2391C24.7039 36.5982 26.3535 40.877 28.2646 45.0152C26.3334 49.2136 24.6637 53.5527 23.2756 57.9721ZM46.7322 77.6585C43.4129 80.6918 39.5705 83.1024 35.3861 84.7497C33.1531 85.8143 30.5781 85.9148 28.2848 85.0108C25.0861 83.1627 23.7584 76.0715 25.5689 66.5296C25.7902 65.4047 26.0316 64.2798 26.3133 63.1749C30.8195 64.1391 35.366 64.8021 39.9729 65.1436C42.6283 68.9001 45.5453 72.4958 48.6635 75.8707C48.0197 76.4934 47.376 77.096 46.7322 77.6585ZM51.6609 72.7771C49.609 70.5674 47.557 68.1166 45.5654 65.4851C47.4967 65.5654 49.4883 65.6056 51.5 65.6056C53.5721 65.6056 55.6039 65.5654 57.6156 65.465C55.7648 68.0162 53.7732 70.4468 51.6609 72.7771ZM77.9541 78.8035C77.773 81.2543 76.566 83.5444 74.6348 85.0912C71.4361 86.9393 64.6164 84.5287 57.2535 78.221C56.4086 77.4978 55.5637 76.7144 54.6986 75.9108C57.7766 72.5159 60.6131 68.9201 63.1881 65.1436C67.7949 64.7619 72.3816 64.0588 76.908 63.0343C77.1092 63.8579 77.2902 64.6815 77.4512 65.4851C78.4369 69.8241 78.5979 74.344 77.9541 78.8035ZM81.6154 57.2087C81.0522 57.3895 80.4889 57.5703 79.9055 57.731C78.4973 53.3518 76.7672 49.073 74.7756 44.9147C76.7068 40.8167 78.3363 36.5982 79.7043 32.2792C80.7504 32.5806 81.7563 32.902 82.7219 33.2234C92.0965 36.4375 98.6748 41.2185 98.6748 44.8746C98.6748 48.8118 91.6539 53.8942 81.6154 57.2087ZM51.5 54.1955C56.5896 54.1955 60.7137 50.0774 60.7137 44.9951C60.7137 39.9128 56.5896 35.7947 51.5 35.7947C46.4104 35.7947 42.2863 39.9128 42.2863 44.9951C42.2863 50.0774 46.4104 54.1955 51.5 54.1955Z" fill="#61DAFB"/>
</svg>
