<svg width="60" height="58" viewBox="0 0 60 58" fill="none" xmlns="http://www.w3.org/2000/svg">
<path d="M20.0685 46.7015C20.0685 46.9414 19.7903 47.1333 19.4395 47.1333C19.0403 47.1692 18.7621 46.9774 18.7621 46.7015C18.7621 46.4616 19.0403 46.2698 19.3911 46.2698C19.754 46.2338 20.0685 46.4257 20.0685 46.7015ZM16.3065 46.1618C16.2218 46.4017 16.4637 46.6775 16.8266 46.7495C17.1411 46.8694 17.504 46.7495 17.5766 46.5096C17.6492 46.2698 17.4194 45.9939 17.0565 45.886C16.7419 45.802 16.3911 45.922 16.3065 46.1618ZM21.6532 45.9579C21.3024 46.0419 21.0605 46.2698 21.0968 46.5456C21.1331 46.7855 21.4476 46.9414 21.8105 46.8574C22.1613 46.7735 22.4032 46.5456 22.3669 46.3057C22.3306 46.0779 22.004 45.922 21.6532 45.9579ZM29.6129 0C12.8347 0 0 12.6288 0 29.2634C0 42.5639 8.44355 53.9454 20.504 57.9511C22.0524 58.227 22.5968 57.2795 22.5968 56.5C22.5968 55.7564 22.5605 51.6547 22.5605 49.1361C22.5605 49.1361 14.0927 50.9351 12.3145 45.5622C12.3145 45.5622 10.9355 42.0721 8.95161 41.1726C8.95161 41.1726 6.18145 39.2897 9.14516 39.3257C9.14516 39.3257 12.1573 39.5656 13.8145 42.4199C16.4637 47.0493 20.9032 45.7181 22.6331 44.9265C22.9113 43.0076 23.6976 41.6764 24.5685 40.8848C17.8065 40.1412 10.9839 39.1698 10.9839 27.6323C10.9839 24.3342 11.9032 22.6791 13.8387 20.5683C13.5242 19.7888 12.496 16.5746 14.1532 12.425C16.6815 11.6454 22.5 15.6631 22.5 15.6631C24.9194 14.9915 27.5202 14.6437 30.0968 14.6437C32.6734 14.6437 35.2742 14.9915 37.6935 15.6631C37.6935 15.6631 43.5121 11.6334 46.0403 12.425C47.6976 16.5866 46.6694 19.7888 46.3548 20.5683C48.2903 22.6911 49.4758 24.3462 49.4758 27.6323C49.4758 39.2058 42.3508 40.1292 35.5887 40.8848C36.7016 41.8323 37.6452 43.6313 37.6452 46.4497C37.6452 50.4914 37.6089 55.4925 37.6089 56.476C37.6089 57.2555 38.1653 58.203 39.7016 57.9271C51.7984 53.9454 60 42.5639 60 29.2634C60 12.6288 46.3911 0 29.6129 0ZM11.7581 41.3645C11.6008 41.4845 11.6371 41.7603 11.8427 41.9882C12.0363 42.1801 12.3145 42.264 12.4718 42.1081C12.629 41.9882 12.5927 41.7123 12.3871 41.4845C12.1935 41.2926 11.9153 41.2086 11.7581 41.3645ZM10.4516 40.3931C10.3669 40.549 10.4879 40.7409 10.7298 40.8608C10.9234 40.9808 11.1653 40.9448 11.25 40.7769C11.3347 40.621 11.2137 40.4291 10.9718 40.3091C10.7298 40.2372 10.5363 40.2732 10.4516 40.3931ZM14.371 44.6627C14.1774 44.8186 14.25 45.1784 14.5282 45.4062C14.8065 45.6821 15.1573 45.7181 15.3145 45.5262C15.4718 45.3703 15.3992 45.0105 15.1573 44.7826C14.8911 44.5068 14.5282 44.4708 14.371 44.6627ZM12.9919 42.8997C12.7984 43.0196 12.7984 43.3314 12.9919 43.6073C13.1855 43.8831 13.5121 44.003 13.6694 43.8831C13.8629 43.7272 13.8629 43.4154 13.6694 43.1395C13.5 42.8637 13.1855 42.7438 12.9919 42.8997Z" fill="black"/>
</svg>
