<svg width="59" height="58" viewBox="0 0 59 58" fill="none" xmlns="http://www.w3.org/2000/svg">
<path d="M29.1477 14.1295C20.9165 14.1295 14.2772 20.7688 14.2772 29C14.2772 37.2312 20.9165 43.8705 29.1477 43.8705C37.3789 43.8705 44.0182 37.2312 44.0182 29C44.0182 20.7688 37.3789 14.1295 29.1477 14.1295ZM29.1477 38.6677C23.8285 38.6677 19.48 34.3321 19.48 29C19.48 23.6679 23.8156 19.3323 29.1477 19.3323C34.4799 19.3323 38.8155 23.6679 38.8155 29C38.8155 34.3321 34.4669 38.6677 29.1477 38.6677ZM48.0949 13.5213C48.0949 15.4496 46.5419 16.9897 44.6265 16.9897C42.6981 16.9897 41.158 15.4367 41.158 13.5213C41.158 11.6058 42.711 10.0528 44.6265 10.0528C46.5419 10.0528 48.0949 11.6058 48.0949 13.5213ZM57.9439 17.0415C57.7239 12.3953 56.6626 8.27971 53.2588 4.88888C49.868 1.49805 45.7524 0.436796 41.1062 0.203838C36.3176 -0.067946 21.9648 -0.067946 17.1763 0.203838C12.543 0.423854 8.42741 1.48511 5.02364 4.87593C1.61987 8.26676 0.571561 12.3823 0.338604 17.0286C0.0668196 21.8171 0.0668196 36.1699 0.338604 40.9585C0.558619 45.6047 1.61987 49.7203 5.02364 53.1111C8.42741 56.502 12.5301 57.5632 17.1763 57.7962C21.9648 58.0679 36.3176 58.0679 41.1062 57.7962C45.7524 57.5761 49.868 56.5149 53.2588 53.1111C56.6497 49.7203 57.7109 45.6047 57.9439 40.9585C58.2157 36.1699 58.2157 21.8301 57.9439 17.0415ZM51.7575 46.0965C50.7481 48.6332 48.7938 50.5874 46.2442 51.6098C42.4263 53.1241 33.3668 52.7746 29.1477 52.7746C24.9286 52.7746 15.8562 53.1111 12.0512 51.6098C9.51455 50.6004 7.56029 48.6461 6.53787 46.0965C5.02364 42.2786 5.37308 33.2191 5.37308 29C5.37308 24.7809 5.03658 15.7085 6.53787 11.9035C7.54735 9.36684 9.50161 7.41258 12.0512 6.39016C15.8691 4.87593 24.9286 5.22537 29.1477 5.22537C33.3668 5.22537 42.4392 4.88888 46.2442 6.39016C48.7809 7.39964 50.7351 9.3539 51.7575 11.9035C53.2718 15.7214 52.9223 24.7809 52.9223 29C52.9223 33.2191 53.2718 42.2915 51.7575 46.0965Z" fill="black"/>
</svg>
