<svg width="59" height="59" viewBox="0 0 59 59" fill="none" xmlns="http://www.w3.org/2000/svg">
<path d="M13.233 58.0029H1.20806V19.2793H13.233V58.0029ZM7.21404 13.997C3.36886 13.997 0.25 10.8121 0.25 6.96697C0.25 5.11999 0.983709 3.34866 2.28972 2.04265C3.59573 0.736639 5.36706 0.00292969 7.21404 0.00292969C9.06102 0.00292969 10.8323 0.736639 12.1384 2.04265C13.4444 3.34866 14.1781 5.11999 14.1781 6.96697C14.1781 10.8121 11.0579 13.997 7.21404 13.997ZM58.2383 58.0029H46.2393V39.1525C46.2393 34.66 46.1487 28.8987 39.9874 28.8987C33.7354 28.8987 32.7773 33.7796 32.7773 38.8288V58.0029H20.7654V19.2793H32.2983V24.5616H32.4666C34.072 21.5191 37.9936 18.3083 43.8442 18.3083C56.0141 18.3083 58.2513 26.3223 58.2513 36.7315V58.0029H58.2383Z" fill="black"/>
</svg>
