<svg width="61" height="49" viewBox="0 0 61 49" fill="none" xmlns="http://www.w3.org/2000/svg">
<path d="M53.9225 12.1447C53.9606 12.6776 53.9606 13.2107 53.9606 13.7437C53.9606 30 41.5875 48.7311 18.9732 48.7311C12.0061 48.7311 5.53405 46.7132 0.0898438 43.2108C1.07973 43.325 2.03141 43.3631 3.05939 43.3631C8.80804 43.3631 14.1 41.4215 18.3259 38.1093C12.9198 37.995 8.38933 34.4544 6.82839 29.5813C7.58987 29.6954 8.35124 29.7716 9.15082 29.7716C10.2548 29.7716 11.359 29.6193 12.3868 29.3529C6.75233 28.2107 2.5263 23.2615 2.5263 17.2843V17.1321C4.1633 18.0458 6.06702 18.6168 8.08464 18.6929C4.77244 16.4847 2.60247 12.7157 2.60247 8.45171C2.60247 6.16749 3.2115 4.07357 4.27756 2.24614C10.3309 9.70809 19.43 14.5811 29.6329 15.1142C29.4426 14.2005 29.3284 13.2488 29.3284 12.297C29.3284 5.52026 34.8106 0 41.6254 0C45.166 0 48.3639 1.48477 50.6102 3.88326C53.3893 3.35029 56.0542 2.32231 58.4148 0.913715C57.5009 3.76912 55.5594 6.1676 53.0086 7.69034C55.4833 7.42397 57.8818 6.73854 60.0898 5.78686C58.415 8.22331 56.321 10.3933 53.9225 12.1447Z" fill="black"/>
</svg>
